SplineFontDB: 1.0
FontName: Digital-Digits
FullName: Digital Digits
FamilyName: Digital Digits
Weight: Book
Copyright: 
Version: 1.0 08:19:29 1999
ItalicAngle: 0
UnderlinePosition: -120
UnderlineWidth: 70
Ascent: 880
Descent: 220
Order2: 1
NeedsXUIDChange: 1
XUID: [1021 555 146130107 5449711]
FSType: 2
OS2Version: 1
OS2_WeightWidthSlopeOnly: 0
OS2_UseTypoMetrics: 1
CreationTime: -1164963232
ModificationTime: 1368710816
PfmFamily: 81
TTFWeight: 400
TTFWidth: 5
LineGap: 0
VLineGap: 0
Panose: 0 0 0 0 0 0 0 0 0 0
OS2TypoAscent: -80
OS2TypoAOffset: 1
OS2TypoDescent: 420
OS2TypoDOffset: 1
OS2TypoLinegap: 0
OS2WinAscent: 0
OS2WinAOffset: 1
OS2WinDescent: 0
OS2WinDOffset: 1
HheadAscent: 0
HheadAOffset: 1
HheadDescent: -13
HheadDOffset: 1
OS2SubXSize: 700
OS2SubYSize: 650
OS2SubXOff: 0
OS2SubYOff: 143
OS2SupXSize: 700
OS2SupYSize: 650
OS2SupXOff: 0
OS2SupYOff: 453
OS2StrikeYSize: 50
OS2StrikeYPos: 259
OS2Vendor: 'Alts'
TtfTable: prep 173
5Rn_P)B&tk!<E0#%hD)0NOT#hKm#mu6l<63$Ut+HZNC1s!%YAY!Cd&>ZNU_+!%YA[!(Hr=ZNgM#
!%YA]%n6OLZO$Y%!%YA_!(Hr=ZO?k(!%YAb$Ut+HZOR"*!%YAe%n6OLZOm^;!%YAg$Ut+HZP*^9
!%YAi!Cd&>ZP<L1!%YAk%n6OLZPNX3!%YAm!Cd&>ZPa-?!%UKO6q(cW7;,(XBLG:&6i[2e
EndTtf
TtfTable: fpgm 100
5Qq;o!s/HRG"!OX"!pA\@;$K&BOF4[/4C\c"!pA\@;$m!?plRt+<\2o^c2t35QNc&/M&"eYWt/\
YQ6Yls1gTG/-2tEFs':g(aDLYBHUD"YQH0r33WH1'!MBpAN3gE
EndTtf
TtfTable: cvt  76
!kSJc!)!A_!X8W)"&T*Es,[8P!\aTS!Yk\F!BL1=s$csc!4DlI!S%3Is(_W<!:BiG!)!;b!1j1C
!3?0P!#tu3!+>j;!&FUI
EndTtf
TtfTable: maxp 32
!!*'"!,;L3!"Ju/!!!!#!!iQi!"&]+!+Z)Oz
EndTtf
LangName: 1033 "" "" "Normal" "Digital: Version 1.0" "" "1.0" 
Encoding: UnicodeBmp
UnicodeInterp: none
NameList: Adobe Glyph List
DisplaySize: -48
AntiAlias: 1
FitToEm: 1
WinInfo: 0 15 10
BeginChars: 65539 28
StartChar: .notdef
Encoding: 65536 -1 0
Width: 550
Flags: W
Fore
34 0 m 1,0,-1
 34 900 l 1,1,-1
 516 900 l 1,2,-1
 516 0 l 1,3,-1
 34 0 l 1,0,-1
482 34 m 1,4,-1
 482 866 l 1,5,-1
 68 866 l 1,6,-1
 68 34 l 1,7,-1
 482 34 l 1,4,-1
EndSplineSet
EndChar
StartChar: plus
Encoding: 43 43 4
Width: 455
GlyphClass: 2
Flags: W
Fore
265 401 m 1,0,-1
 228 364 l 1,1,-1
 190 401 l 1,2,-1
 190 480 l 1,3,-1
 228 518 l 1,4,-1
 265 480 l 1,5,-1
 265 401 l 1,0,-1
395 350 m 1,6,-1
 358 313 l 1,7,-1
 279 313 l 1,8,-1
 241 350 l 1,9,-1
 279 387 l 1,10,-1
 358 387 l 1,11,-1
 395 350 l 1,6,-1
214 350 m 1,12,-1
 176 313 l 1,13,-1
 97 313 l 1,14,-1
 60 350 l 1,15,-1
 97 387 l 1,16,-1
 176 387 l 1,17,-1
 214 350 l 1,12,-1
265 219 m 1,18,-1
 228 182 l 1,19,-1
 190 219 l 1,20,-1
 190 299 l 1,21,-1
 228 336 l 1,22,-1
 265 299 l 1,23,-1
 265 219 l 1,18,-1
EndSplineSet
EndChar
StartChar: comma
Encoding: 44 44 5
Width: 194
GlyphClass: 2
Flags: W
Fore
135 -79 m 1,0,-1
 97 -116 l 1,1,-1
 60 -79 l 1,2,-1
 60 75 l 1,3,-1
 135 75 l 1,4,-1
 135 -79 l 1,0,-1
EndSplineSet
EndChar
StartChar: hyphen
Encoding: 45 45 6
Width: 539
GlyphClass: 2
Flags: HWO
Fore
442 387 m 1,0,-1
 479 350 l 1,1,-1
 442 313 l 1,2,-1
 97 313 l 1,3,-1
 60 350 l 1,4,-1
 97 387 l 1,5,-1
 442 387 l 1,0,-1
EndSplineSet
EndChar
StartChar: period
Encoding: 46 46 7
Width: 194
GlyphClass: 2
Flags: W
Fore
60 0 m 1,0,-1
 60 75 l 1,1,-1
 135 75 l 1,2,-1
 135 0 l 1,3,-1
 60 0 l 1,0,-1
EndSplineSet
EndChar
StartChar: slash
Encoding: 47 47 8
Width: 506
GlyphClass: 2
Flags: W
Fore
246 320 m 1,0,-1
 64 4 l 1,1,-1
 36 106 l 1,2,-1
 172 340 l 1,3,-1
 235 358 l 1,4,-1
 246 320 l 1,0,-1
232 446 m 1,5,-1
 367 680 l 1,6,-1
 470 707 l 1,7,-1
 287 393 l 1,8,-1
 249 382 l 1,9,-1
 232 446 l 1,5,-1
EndSplineSet
EndChar
StartChar: zero
Encoding: 48 48 9
Width: 539
GlyphClass: 2
Flags: W
Fore
479 392 m 1,0,-1
 452 364 l 1,1,-1
 405 411 l 1,2,-1
 405 611 l 1,3,-1
 479 686 l 1,4,-1
 479 392 l 1,0,-1
465 700 m 1,5,-1
 391 625 l 1,6,-1
 148 625 l 1,7,-1
 74 700 l 1,8,-1
 465 700 l 1,5,-1
135 411 m 1,9,-1
 88 364 l 1,10,-1
 60 392 l 1,11,-1
 60 686 l 1,12,-1
 135 611 l 1,13,-1
 135 411 l 1,9,-1
479 14 m 1,14,-1
 405 89 l 1,15,-1
 405 289 l 1,16,-1
 452 336 l 1,17,-1
 479 307 l 1,18,-1
 479 14 l 1,14,-1
465 0 m 1,19,-1
 74 0 l 1,20,-1
 148 75 l 1,21,-1
 391 75 l 1,22,-1
 465 0 l 1,19,-1
135 89 m 1,23,-1
 60 14 l 1,24,-1
 60 307 l 1,25,-1
 88 336 l 1,26,-1
 135 289 l 1,27,-1
 135 89 l 1,23,-1
EndSplineSet
EndChar
StartChar: one
Encoding: 49 49 10
Width: 539
GlyphClass: 2
Flags: W
Fore
479 307 m 1,0,-1
 479 14 l 1,1,-1
 404 89 l 1,2,-1
 404 289 l 1,3,-1
 451 336 l 1,4,-1
 479 307 l 1,0,-1
404 411 m 1,5,-1
 404 611 l 1,6,-1
 479 686 l 1,7,-1
 479 392 l 1,8,-1
 451 364 l 1,9,-1
 404 411 l 1,5,-1
EndSplineSet
EndChar
StartChar: two
Encoding: 50 50 11
Width: 539
GlyphClass: 2
Flags: W
Fore
465 700 m 1,0,-1
 391 625 l 1,1,-1
 148 625 l 1,2,-1
 74 700 l 1,3,-1
 465 700 l 1,0,-1
465 0 m 1,4,-1
 74 0 l 1,5,-1
 148 75 l 1,6,-1
 391 75 l 1,7,-1
 465 0 l 1,4,-1
135 289 m 1,8,-1
 135 89 l 1,9,-1
 60 14 l 1,10,-1
 60 307 l 1,11,-1
 88 336 l 1,12,-1
 135 289 l 1,8,-1
405 411 m 1,13,-1
 405 611 l 1,14,-1
 479 686 l 1,15,-1
 479 392 l 1,16,-1
 452 364 l 1,17,-1
 405 411 l 1,13,-1
400 387 m 1,18,-1
 438 350 l 5,19,-1
 400 313 l 1,20,-1
 139 313 l 1,21,-1
 102 350 l 1,22,-1
 139 387 l 1,23,-1
 400 387 l 1,18,-1
EndSplineSet
EndChar
StartChar: three
Encoding: 51 51 12
Width: 539
GlyphClass: 2
Flags: W
Fore
465 700 m 1,0,-1
 391 625 l 1,1,-1
 148 625 l 1,2,-1
 74 700 l 1,3,-1
 465 700 l 1,0,-1
465 0 m 1,4,-1
 74 0 l 1,5,-1
 148 75 l 1,6,-1
 391 75 l 1,7,-1
 465 0 l 1,4,-1
479 307 m 1,8,-1
 479 14 l 1,9,-1
 405 89 l 1,10,-1
 405 289 l 1,11,-1
 452 336 l 1,12,-1
 479 307 l 1,8,-1
405 411 m 1,13,-1
 405 611 l 1,14,-1
 479 686 l 1,15,-1
 479 392 l 1,16,-1
 452 364 l 1,17,-1
 405 411 l 1,13,-1
400 387 m 1,18,-1
 438 350 l 1,19,-1
 400 313 l 1,20,-1
 139 313 l 1,21,-1
 102 350 l 1,22,-1
 139 387 l 1,23,-1
 400 387 l 1,18,-1
EndSplineSet
EndChar
StartChar: four
Encoding: 52 52 13
Width: 539
GlyphClass: 2
Flags: WO
Fore
60 392 m 1,0,-1
 60 686 l 1,1,-1
 135 611 l 1,2,-1
 135 411 l 1,3,-1
 88 364 l 1,4,-1
 60 392 l 1,0,-1
479 307 m 1,5,-1
 479 14 l 1,6,-1
 405 89 l 1,7,-1
 405 289 l 1,8,-1
 452 336 l 1,9,-1
 479 307 l 1,5,-1
405 411 m 1,10,-1
 405 611 l 1,11,-1
 479 686 l 1,12,-1
 479 392 l 5,13,-1
 452 364 l 1,14,-1
 405 411 l 1,10,-1
400 387 m 1,15,-1
 438 350 l 1,16,-1
 400 313 l 1,17,-1
 139 313 l 1,18,-1
 102 350 l 1,19,-1
 139 387 l 1,20,-1
 400 387 l 1,15,-1
EndSplineSet
EndChar
StartChar: five
Encoding: 53 53 14
Width: 539
GlyphClass: 2
Flags: W
Fore
465 700 m 1,0,-1
 391 625 l 1,1,-1
 148 625 l 1,2,-1
 74 700 l 1,3,-1
 465 700 l 1,0,-1
465 0 m 1,4,-1
 74 0 l 1,5,-1
 148 75 l 1,6,-1
 391 75 l 1,7,-1
 465 0 l 1,4,-1
60 392 m 1,8,-1
 60 686 l 1,9,-1
 135 611 l 1,10,-1
 135 411 l 1,11,-1
 88 364 l 1,12,-1
 60 392 l 1,8,-1
479 307 m 1,13,-1
 479 14 l 1,14,-1
 405 89 l 1,15,-1
 405 289 l 1,16,-1
 452 336 l 1,17,-1
 479 307 l 1,13,-1
400 387 m 1,18,-1
 438 350 l 1,19,-1
 400 313 l 1,20,-1
 139 313 l 1,21,-1
 102 350 l 1,22,-1
 139 387 l 1,23,-1
 400 387 l 1,18,-1
EndSplineSet
EndChar
StartChar: six
Encoding: 54 54 15
Width: 539
GlyphClass: 2
Flags: W
Fore
465 700 m 1,0,-1
 391 625 l 1,1,-1
 148 625 l 1,2,-1
 74 700 l 1,3,-1
 465 700 l 1,0,-1
465 0 m 1,4,-1
 74 0 l 1,5,-1
 148 75 l 1,6,-1
 391 75 l 1,7,-1
 465 0 l 1,4,-1
135 289 m 1,8,-1
 135 89 l 1,9,-1
 60 14 l 1,10,-1
 60 307 l 1,11,-1
 88 336 l 1,12,-1
 135 289 l 1,8,-1
60 392 m 1,13,-1
 60 686 l 1,14,-1
 135 611 l 1,15,-1
 135 411 l 1,16,-1
 88 364 l 1,17,-1
 60 392 l 1,13,-1
479 307 m 1,18,-1
 479 14 l 1,19,-1
 405 89 l 1,20,-1
 405 289 l 1,21,-1
 452 336 l 1,22,-1
 479 307 l 1,18,-1
400 387 m 1,23,-1
 438 350 l 1,24,-1
 400 313 l 1,25,-1
 139 313 l 1,26,-1
 102 350 l 1,27,-1
 139 387 l 1,28,-1
 400 387 l 1,23,-1
EndSplineSet
EndChar
StartChar: seven
Encoding: 55 55 16
Width: 539
GlyphClass: 2
Flags: W
Fore
465 700 m 1,0,-1
 391 625 l 1,1,-1
 148 625 l 1,2,-1
 74 700 l 1,3,-1
 465 700 l 1,0,-1
479 307 m 1,4,-1
 479 14 l 1,5,-1
 405 89 l 1,6,-1
 405 289 l 1,7,-1
 452 336 l 1,8,-1
 479 307 l 1,4,-1
405 411 m 1,9,-1
 405 611 l 1,10,-1
 479 686 l 1,11,-1
 479 392 l 1,12,-1
 452 364 l 1,13,-1
 405 411 l 1,9,-1
EndSplineSet
EndChar
StartChar: eight
Encoding: 56 56 17
Width: 539
GlyphClass: 2
Flags: W
Fore
465 700 m 1,0,-1
 391 625 l 1,1,-1
 148 625 l 1,2,-1
 74 700 l 1,3,-1
 465 700 l 1,0,-1
465 0 m 1,4,-1
 74 0 l 1,5,-1
 148 75 l 1,6,-1
 391 75 l 1,7,-1
 465 0 l 1,4,-1
135 289 m 1,8,-1
 135 89 l 1,9,-1
 60 14 l 1,10,-1
 60 307 l 1,11,-1
 88 336 l 1,12,-1
 135 289 l 1,8,-1
60 392 m 1,13,-1
 60 686 l 1,14,-1
 135 611 l 1,15,-1
 135 411 l 1,16,-1
 88 364 l 1,17,-1
 60 392 l 1,13,-1
479 307 m 1,18,-1
 479 14 l 1,19,-1
 405 89 l 1,20,-1
 405 289 l 1,21,-1
 452 336 l 1,22,-1
 479 307 l 1,18,-1
405 411 m 1,23,-1
 405 611 l 1,24,-1
 479 686 l 1,25,-1
 479 392 l 1,26,-1
 452 364 l 1,27,-1
 405 411 l 1,23,-1
400 387 m 1,28,-1
 438 350 l 1,29,-1
 400 313 l 1,30,-1
 139 313 l 1,31,-1
 102 350 l 1,32,-1
 139 387 l 1,33,-1
 400 387 l 1,28,-1
EndSplineSet
EndChar
StartChar: nine
Encoding: 57 57 18
Width: 539
GlyphClass: 2
Flags: W
Fore
465 700 m 1,0,-1
 391 625 l 1,1,-1
 148 625 l 1,2,-1
 74 700 l 1,3,-1
 465 700 l 1,0,-1
465 0 m 1,4,-1
 74 0 l 1,5,-1
 148 75 l 1,6,-1
 391 75 l 1,7,-1
 465 0 l 1,4,-1
60 392 m 1,8,-1
 60 686 l 1,9,-1
 135 611 l 1,10,-1
 135 411 l 1,11,-1
 88 364 l 1,12,-1
 60 392 l 1,8,-1
479 307 m 1,13,-1
 479 14 l 1,14,-1
 405 89 l 1,15,-1
 405 289 l 1,16,-1
 452 336 l 1,17,-1
 479 307 l 1,13,-1
405 411 m 1,18,-1
 405 611 l 1,19,-1
 479 686 l 1,20,-1
 479 392 l 1,21,-1
 452 364 l 1,22,-1
 405 411 l 1,18,-1
400 387 m 1,23,-1
 438 350 l 1,24,-1
 400 313 l 1,25,-1
 139 313 l 1,26,-1
 102 350 l 1,27,-1
 139 387 l 1,28,-1
 400 387 l 1,23,-1
EndSplineSet
EndChar
StartChar: colon
Encoding: 58 58 19
Width: 301
GlyphClass: 2
Flags: W
Fore
113 117 m 1,0,-1
 113 192 l 1,1,-1
 188 192 l 1,2,-1
 188 117 l 1,3,-1
 113 117 l 1,0,-1
113 508 m 1,4,-1
 113 583 l 1,5,-1
 188 583 l 1,6,-1
 188 508 l 1,7,-1
 113 508 l 1,4,-1
EndSplineSet
EndChar
StartChar: endash
Encoding: 8211 8211 20
Width: 558
GlyphClass: 2
Flags: W
Fore
505 387 m 1,0,-1
 543 350 l 1,1,-1
 505 313 l 1,2,-1
 49 313 l 1,3,-1
 11 350 l 1,4,-1
 49 387 l 1,5,-1
 505 387 l 1,0,-1
EndSplineSet
EndChar
StartChar: emdash
Encoding: 8212 8212 21
Width: 981
GlyphClass: 2
Flags: W
Fore
931 387 m 1,0,-1
 968 350 l 1,1,-1
 931 313 l 1,2,-1
 49 313 l 1,3,-1
 11 350 l 1,4,-1
 49 387 l 1,5,-1
 931 387 l 1,0,-1
EndSplineSet
EndChar
StartChar: quoteleft
Encoding: 8216 8216 22
Width: 194
GlyphClass: 2
Flags: W
Fore
135 532 m 1,0,-1
 60 532 l 1,1,-1
 60 663 l 1,2,-1
 97 700 l 1,3,-1
 135 663 l 1,4,-1
 135 532 l 1,0,-1
EndSplineSet
EndChar
StartChar: quoteright
Encoding: 8217 8217 23
Width: 194
GlyphClass: 2
Flags: W
Fore
135 569 m 1,0,-1
 97 532 l 1,1,-1
 60 569 l 1,2,-1
 60 700 l 1,3,-1
 135 700 l 1,4,-1
 135 569 l 1,0,-1
EndSplineSet
EndChar
StartChar: quotedblleft
Encoding: 8220 8220 24
Width: 306
GlyphClass: 2
Flags: W
Fore
247 532 m 1,0,-1
 172 532 l 1,1,-1
 172 663 l 1,2,-1
 209 700 l 1,3,-1
 247 663 l 1,4,-1
 247 532 l 1,0,-1
135 532 m 1,5,-1
 60 532 l 1,6,-1
 60 663 l 1,7,-1
 97 700 l 1,8,-1
 135 663 l 1,9,-1
 135 532 l 1,5,-1
EndSplineSet
EndChar
StartChar: quotedblright
Encoding: 8221 8221 25
Width: 306
GlyphClass: 2
Flags: W
Fore
135 569 m 1,0,-1
 97 532 l 1,1,-1
 60 569 l 1,2,-1
 60 700 l 1,3,-1
 135 700 l 1,4,-1
 135 569 l 1,0,-1
247 569 m 1,5,-1
 209 532 l 1,6,-1
 172 569 l 1,7,-1
 172 700 l 1,8,-1
 247 700 l 1,9,-1
 247 569 l 1,5,-1
EndSplineSet
EndChar
StartChar: bullet
Encoding: 8226 8226 26
Width: 539
GlyphClass: 2
Flags: W
Fore
60 350 m 0,0,1
 60 437 60 437 121.5 498.5 c 128,-1,2
 183 560 183 560 269 560 c 0,3,4
 357 560 357 560 418 499 c 128,-1,5
 479 438 479 438 479 350 c 0,6,7
 479 263 479 263 417.5 201.5 c 128,-1,8
 356 140 356 140 269 140 c 256,9,10
 182 140 182 140 121 201 c 128,-1,11
 60 262 60 262 60 350 c 0,0,1
EndSplineSet
EndChar
StartChar: perthousand
Encoding: 8240 8240 27
Width: 971
GlyphClass: 2
Flags: W
Fore
265 670 m 1,0,-1
 228 632 l 1,1,-1
 148 632 l 1,2,-1
 111 670 l 1,3,-1
 148 707 l 1,4,-1
 228 707 l 1,5,-1
 265 670 l 1,0,-1
265 427 m 1,6,-1
 228 390 l 1,7,-1
 148 390 l 1,8,-1
 111 427 l 1,9,-1
 148 465 l 1,10,-1
 228 465 l 1,11,-1
 265 427 l 1,6,-1
60 479 m 1,12,-1
 97 443 l 1,13,-1
 135 479 l 1,14,-1
 135 618 l 1,15,-1
 97 656 l 1,16,-1
 60 618 l 1,17,-1
 60 479 l 1,12,-1
241 479 m 1,18,-1
 241 618 l 1,19,-1
 279 656 l 1,20,-1
 316 618 l 1,21,-1
 316 479 l 1,22,-1
 279 443 l 1,23,-1
 241 479 l 1,18,-1
554 280 m 1,24,-1
 517 242 l 1,25,-1
 438 242 l 1,26,-1
 400 280 l 1,27,-1
 438 317 l 1,28,-1
 517 317 l 1,29,-1
 554 280 l 1,24,-1
554 37 m 1,30,-1
 517 0 l 1,31,-1
 438 0 l 1,32,-1
 400 37 l 1,33,-1
 438 75 l 1,34,-1
 517 75 l 1,35,-1
 554 37 l 1,30,-1
349 89 m 1,36,-1
 386 53 l 1,37,-1
 424 89 l 1,38,-1
 424 228 l 1,39,-1
 386 266 l 1,40,-1
 349 228 l 1,41,-1
 349 89 l 1,36,-1
531 89 m 1,42,-1
 531 228 l 1,43,-1
 568 266 l 1,44,-1
 605 228 l 1,45,-1
 605 89 l 1,46,-1
 568 53 l 1,47,-1
 531 89 l 1,42,-1
353 320 m 1,48,-1
 172 4 l 1,49,-1
 144 106 l 1,50,-1
 280 340 l 1,51,-1
 343 358 l 1,52,-1
 353 320 l 1,48,-1
340 446 m 1,53,-1
 475 680 l 1,54,-1
 578 707 l 1,55,-1
 395 393 l 1,56,-1
 357 382 l 1,57,-1
 340 446 l 1,53,-1
860 280 m 1,58,-1
 823 242 l 1,59,-1
 744 242 l 1,60,-1
 706 280 l 1,61,-1
 744 317 l 1,62,-1
 823 317 l 1,63,-1
 860 280 l 1,58,-1
860 37 m 1,64,-1
 823 0 l 1,65,-1
 744 0 l 1,66,-1
 706 37 l 1,67,-1
 744 75 l 1,68,-1
 823 75 l 1,69,-1
 860 37 l 1,64,-1
655 89 m 1,70,-1
 692 53 l 1,71,-1
 730 89 l 1,72,-1
 730 228 l 1,73,-1
 692 266 l 1,74,-1
 655 228 l 1,75,-1
 655 89 l 1,70,-1
837 89 m 1,76,-1
 837 228 l 1,77,-1
 874 266 l 1,78,-1
 911 228 l 1,79,-1
 911 89 l 1,80,-1
 874 53 l 1,81,-1
 837 89 l 1,76,-1
EndSplineSet
EndChar
